<svg xmlns="http://www.w3.org/2000/svg" xmlns:xlink="http://www.w3.org/1999/xlink" aria-hidden="true" role="img" class="iconify iconify--logos" width="31.88" height="32" preserveAspectRatio="xMidYMid meet" viewBox="0 0 256 257"><path fill="#1677ff" d="M210.483 241.105a8.677 8.677 0 0 1-8.678 8.677H54.195a8.677 8.677 0 0 1-8.678-8.677V15.573a8.677 8.677 0 0 1 8.678-8.677h147.61a8.677 8.677 0 0 1 8.678 8.677z"></path><path fill="url(#viteLogo)" d="m102.417 157.236l61.767-105.262c2.346-4.005 8.283-4.005 10.629 0l61.766 105.262a5.76 5.76 0 0 1 0 5.754l-61.766 105.262c-2.346 4.005-8.283 4.005-10.629 0L102.417 162.99a5.76 5.76 0 0 1 0-5.754Z"></path><path fill="url(#viteLogo2)" d="M174.485 128L122.61 235.638c-2.346 4.005-8.283 4.005-10.629 0L50.247 130.376a5.76 5.76 0 0 1 0-5.754L111.981 21.362c2.346-4.005 8.283-4.005 10.629 0z"></path><defs><linearGradient id="viteLogo" x1="12.5" x2="243.5" y1="128" y2="128" gradientUnits="userSpaceOnUse"><stop stop-color="#1677ff"></stop><stop offset="1" stop-color="#69b1ff"></stop></linearGradient><linearGradient id="viteLogo2" x1="112.5" x2="143.5" y1="21.362" y2="235.638" gradientUnits="userSpaceOnUse"><stop stop-color="#1677ff"></stop><stop offset="1" stop-color="#69b1ff"></stop></linearGradient></defs></svg>
